# xmcd
#
# Track frame offsets:
#	150
#	15897
#	29018
#	42324
#	55062
#	71969
#	87772
#	110740
#	122145
#	131403
#	151326
#	169238
#
# Disc length: 2475 seconds
#
# Revision: 1
# Processed by: cddbd v1.5.1PL0 Copyright (c) Steve Scherf et al.
# Submitted via: audiograbber 1.83.01
#
DISCID=9f09a90c
DTITLE=One Star Hotel - Good Morning, West Gordon
DYEAR=2004
DGENRE=Americana
TTITLE0=Frustrated And Free
TTITLE1=Can't Be Trusted
TTITLE2=Starlight
TTITLE3=Kings
TTITLE4=Falling Down
TTITLE5=Two And Four
TTITLE6=Same Town
TTITLE7=River Drive
TTITLE8=This Fall
TTITLE9=Thunderhead
TTITLE10=Good Morning, West Gordon
TTITLE11=In The Spring
EXTD=
EXTT0=
EXTT1=
EXTT2=
EXTT3=
EXTT4=
EXTT5=
EXTT6=
EXTT7=
EXTT8=
EXTT9=
EXTT10=
EXTT11=
PLAYORDER=
